<svg xmlns="http://www.w3.org/2000/svg" width="1200" height="400" viewBox="0 0 1200 400" role="img" aria-label="Birikio — Biriktir. Büyüt. Hayaline ulaş.">
<defs>
  <linearGradient id="bg" x2="1" y2="1"><stop stop-color="#101726"/><stop offset="1" stop-color="#211d36"/></linearGradient>
  <radialGradient id="glow"><stop stop-color="#70e5bc" stop-opacity=".16"/><stop offset="1" stop-color="#70e5bc" stop-opacity="0"/></radialGradient>
</defs>
<rect width="1200" height="400" rx="28" fill="url(#bg)"/>
<circle cx="981" cy="187" r="230" fill="url(#glow)"/>
<g fill="none" stroke="#b9a3ff" stroke-opacity=".13"><circle cx="974" cy="200" r="150"/><circle cx="974" cy="200" r="184"/></g>
<g transform="translate(828 58) scale(2.8)"><path fill="#B9A3FF" fill-rule="evenodd" d="M40,47 H63 Q81,47 81,65 V65 Q81,83 63,83 H40 Q22,83 22,65 V65 Q22,47 40,47 Z M45.5,58 H59.5 Q66,58 66,64.5 V64.5 Q66,71 59.5,71 H45.5 Q39,71 39,64.5 V64.5 Q39,58 45.5,58 Z"/><path fill="#70E5BC" fill-rule="evenodd" d="M39.5,23 H57.5 Q75,23 75,40.5 V40.5 Q75,58 57.5,58 H39.5 Q22,58 22,40.5 V40.5 Q22,23 39.5,23 Z M45,34 H54 Q60,34 60,40 V40 Q60,46 54,46 H45 Q39,46 39,40 V40 Q39,34 45,34 Z"/><path fill="#70E5BC" fill-rule="evenodd" d="M28,23 H31 Q37,23 37,29 V77 Q37,83 31,83 H28 Q22,83 22,77 V29 Q22,23 28,23 Z"/><path fill="#FFD780" fill-rule="evenodd" d="M69,17 A9,9 0 1,0 87,17 A9,9 0 1,0 69,17"/><path fill="#0C101B" fill-rule="evenodd" d="M77,13 H79 V16 H82 V18 H79 V21 H77 V18 H74 V16 H77 Z"/></g>
<text x="64" y="69" fill="#70e5bc" font-family="Arial,sans-serif" font-size="12" font-weight="700" letter-spacing="3">KİŞİSEL FİNANS · TAMAMEN YEREL</text>
<text x="60" y="166" fill="#f4f6fb" font-family="Arial,sans-serif" font-size="84" font-weight="800" letter-spacing="-4">Birikio</text>
<text x="64" y="224" fill="#ded7ef" font-family="Arial,sans-serif" font-size="28" font-weight="600">Biriktir. Büyüt. Hayaline ulaş.</text>
<text x="64" y="266" fill="#9ca8bc" font-family="Arial,sans-serif" font-size="17">Gelirlerin, giderlerin ve bir sonraki büyük hayalin.</text>
<g font-family="Arial,sans-serif" font-size="12" font-weight="600">
<rect x="64" y="313" width="102" height="32" rx="16" fill="#70e5bc" fill-opacity=".11"/><text x="115" y="334" text-anchor="middle" fill="#70e5bc">Flutter + Dart</text>
<rect x="178" y="313" width="128" height="32" rx="16" fill="#b9a3ff" fill-opacity=".12"/><text x="242" y="334" text-anchor="middle" fill="#c6b5ff">İnternetsiz kullanım</text>
<rect x="318" y="313" width="127" height="32" rx="16" fill="#ffd780" fill-opacity=".10"/><text x="381" y="334" text-anchor="middle" fill="#ffd780">Açık &amp; koyu tema</text>
</g>
</svg>